# xmcd
#
# Track frame offsets: 
#        150
#        19456
#        37143
#        55455
#        74260
#        93475
#        107633
#        119219
#        136926
#        153995
#        166224
#        192737
#        216517
#        233102
#        249540
#        266675
#        288746
#
# Disc length: 4138 seconds
#
# Revision: 10
# Processed by: cddbd v1.5.2PL0 Copyright (c) Steve Scherf et al.
# Submitted via: ExactAudioCopyFreeDBPlugin 1.0
#
DISCID=13102811
DTITLE=Adele - Live At The Royal Albert Hall (09-22-11)
DYEAR=2011
DGENRE=Pop
TTITLE0=Hometown Glory
TTITLE1=I'll Be Waiting
TTITLE2=Don't You Remember
TTITLE3=Turning Tables
TTITLE4=Set Fire To The Rain
TTITLE5=If It Hadn't Been For Love
TTITLE6=My Same
TTITLE7=Take It All
TTITLE8=Rumor Has It
TTITLE9=Right As Rain
TTITLE10=One And Only
TTITLE11=Lovesong
TTITLE12=Chasing Pavements
TTITLE13=I Can't Make You Love Me
TTITLE14=Make You Feel My Love
TTITLE15=Someone Like You
TTITLE16=Rolling In The Deep
EXTD=YEAR: 2011
EXTT0=
EXTT1=
EXTT2=
EXTT3=
EXTT4=
EXTT5=
EXTT6=
EXTT7=
EXTT8=
EXTT9=
EXTT10=
EXTT11=
EXTT12=
EXTT13=
EXTT14=
EXTT15=
EXTT16=
PLAYORDER=
